<mxfile host="app.diagrams.net" agent="Mozilla/5.0 (Windows NT 10.0; Win64; x64) AppleWebKit/537.36 (KHTML, like Gecko) Chrome/130.0.0.0 Safari/537.36" version="24.8.3">
  <diagram name="Page-1" id="7EfzhFpn6paZ-8lp7Z3t">
    <mxGraphModel dx="2074" dy="1098" grid="1" gridSize="10" guides="1" tooltips="1" connect="1" arrows="1" fold="1" page="1" pageScale="1" pageWidth="1169" pageHeight="827" math="0" shadow="0">
      <root>
        <mxCell id="0" />
        <mxCell id="1" parent="0" />
        <mxCell id="xeNt2EiYQWwQvFAwMQvV-1" value="AWS Cloud" style="points=[[0,0],[0.25,0],[0.5,0],[0.75,0],[1,0],[1,0.25],[1,0.5],[1,0.75],[1,1],[0.75,1],[0.5,1],[0.25,1],[0,1],[0,0.75],[0,0.5],[0,0.25]];outlineConnect=0;gradientColor=none;html=1;whiteSpace=wrap;fontSize=12;fontStyle=0;container=1;pointerEvents=0;collapsible=0;recursiveResize=0;shape=mxgraph.aws4.group;grIcon=mxgraph.aws4.group_aws_cloud_alt;strokeColor=#232F3E;fillColor=none;verticalAlign=top;align=left;spacingLeft=30;fontColor=#232F3E;dashed=0;" parent="1" vertex="1">
          <mxGeometry x="280" y="80" width="840" height="680" as="geometry" />
        </mxCell>
        <mxCell id="xeNt2EiYQWwQvFAwMQvV-3" value="VPC" style="points=[[0,0],[0.25,0],[0.5,0],[0.75,0],[1,0],[1,0.25],[1,0.5],[1,0.75],[1,1],[0.75,1],[0.5,1],[0.25,1],[0,1],[0,0.75],[0,0.5],[0,0.25]];outlineConnect=0;gradientColor=none;html=1;whiteSpace=wrap;fontSize=12;fontStyle=0;container=1;pointerEvents=0;collapsible=0;recursiveResize=0;shape=mxgraph.aws4.group;grIcon=mxgraph.aws4.group_vpc;strokeColor=#248814;fillColor=none;verticalAlign=top;align=left;spacingLeft=30;fontColor=#AAB7B8;dashed=0;" parent="xeNt2EiYQWwQvFAwMQvV-1" vertex="1">
          <mxGeometry x="240" y="200" width="560" height="440" as="geometry" />
        </mxCell>
        <mxCell id="xeNt2EiYQWwQvFAwMQvV-4" value="Public subnet" style="points=[[0,0],[0.25,0],[0.5,0],[0.75,0],[1,0],[1,0.25],[1,0.5],[1,0.75],[1,1],[0.75,1],[0.5,1],[0.25,1],[0,1],[0,0.75],[0,0.5],[0,0.25]];outlineConnect=0;gradientColor=none;html=1;whiteSpace=wrap;fontSize=12;fontStyle=0;container=1;pointerEvents=0;collapsible=0;recursiveResize=0;shape=mxgraph.aws4.group;grIcon=mxgraph.aws4.group_security_group;grStroke=0;strokeColor=#248814;fillColor=#E9F3E6;verticalAlign=top;align=left;spacingLeft=30;fontColor=#248814;dashed=0;" parent="xeNt2EiYQWwQvFAwMQvV-3" vertex="1">
          <mxGeometry x="120" y="40" width="160" height="360" as="geometry" />
        </mxCell>
        <mxCell id="xeNt2EiYQWwQvFAwMQvV-7" value="ALB" style="outlineConnect=0;dashed=0;verticalLabelPosition=bottom;verticalAlign=top;align=center;html=1;shape=mxgraph.aws3.application_load_balancer;fillColor=#F58536;gradientColor=none;" parent="xeNt2EiYQWwQvFAwMQvV-4" vertex="1">
          <mxGeometry x="45.5" y="55" width="69" height="72" as="geometry" />
        </mxCell>
        <mxCell id="xeNt2EiYQWwQvFAwMQvV-5" value="Private subnet" style="points=[[0,0],[0.25,0],[0.5,0],[0.75,0],[1,0],[1,0.25],[1,0.5],[1,0.75],[1,1],[0.75,1],[0.5,1],[0.25,1],[0,1],[0,0.75],[0,0.5],[0,0.25]];outlineConnect=0;gradientColor=none;html=1;whiteSpace=wrap;fontSize=12;fontStyle=0;container=1;pointerEvents=0;collapsible=0;recursiveResize=0;shape=mxgraph.aws4.group;grIcon=mxgraph.aws4.group_security_group;grStroke=0;strokeColor=#147EBA;fillColor=#E6F2F8;verticalAlign=top;align=left;spacingLeft=30;fontColor=#147EBA;dashed=0;" parent="xeNt2EiYQWwQvFAwMQvV-3" vertex="1">
          <mxGeometry x="320" y="40" width="200" height="360" as="geometry" />
        </mxCell>
        <mxCell id="xeNt2EiYQWwQvFAwMQvV-11" value="Frontend" style="group;labelPosition=center;verticalLabelPosition=bottom;align=center;verticalAlign=top;" parent="xeNt2EiYQWwQvFAwMQvV-5" vertex="1" connectable="0">
          <mxGeometry x="12" y="52" width="175" height="78" as="geometry" />
        </mxCell>
        <mxCell id="xeNt2EiYQWwQvFAwMQvV-8" value="" style="sketch=0;points=[[0,0,0],[0.25,0,0],[0.5,0,0],[0.75,0,0],[1,0,0],[0,1,0],[0.25,1,0],[0.5,1,0],[0.75,1,0],[1,1,0],[0,0.25,0],[0,0.5,0],[0,0.75,0],[1,0.25,0],[1,0.5,0],[1,0.75,0]];outlineConnect=0;fontColor=#232F3E;gradientColor=#F78E04;gradientDirection=north;fillColor=#D05C17;strokeColor=#ffffff;dashed=0;verticalLabelPosition=bottom;verticalAlign=top;align=center;html=1;fontSize=12;fontStyle=0;aspect=fixed;shape=mxgraph.aws4.resourceIcon;resIcon=mxgraph.aws4.ecs;" parent="xeNt2EiYQWwQvFAwMQvV-11" vertex="1">
          <mxGeometry width="78" height="78" as="geometry" />
        </mxCell>
        <mxCell id="xeNt2EiYQWwQvFAwMQvV-9" value="" style="sketch=0;outlineConnect=0;fontColor=#232F3E;gradientColor=none;fillColor=#D45B07;strokeColor=none;dashed=0;verticalLabelPosition=bottom;verticalAlign=top;align=center;html=1;fontSize=12;fontStyle=0;aspect=fixed;pointerEvents=1;shape=mxgraph.aws4.ecs_service;" parent="xeNt2EiYQWwQvFAwMQvV-11" vertex="1">
          <mxGeometry x="88" y="15" width="39" height="48" as="geometry" />
        </mxCell>
        <mxCell id="xeNt2EiYQWwQvFAwMQvV-10" value="" style="sketch=0;outlineConnect=0;fontColor=#232F3E;gradientColor=none;fillColor=#D45B07;strokeColor=none;dashed=0;verticalLabelPosition=bottom;verticalAlign=top;align=center;html=1;fontSize=12;fontStyle=0;aspect=fixed;pointerEvents=1;shape=mxgraph.aws4.ecs_task;" parent="xeNt2EiYQWwQvFAwMQvV-11" vertex="1">
          <mxGeometry x="138" y="15" width="37" height="48" as="geometry" />
        </mxCell>
        <mxCell id="xeNt2EiYQWwQvFAwMQvV-12" value="Backend" style="group;labelPosition=center;verticalLabelPosition=bottom;align=center;verticalAlign=top;" parent="xeNt2EiYQWwQvFAwMQvV-5" vertex="1" connectable="0">
          <mxGeometry x="12" y="180" width="175" height="78" as="geometry" />
        </mxCell>
        <mxCell id="xeNt2EiYQWwQvFAwMQvV-13" value="" style="sketch=0;points=[[0,0,0],[0.25,0,0],[0.5,0,0],[0.75,0,0],[1,0,0],[0,1,0],[0.25,1,0],[0.5,1,0],[0.75,1,0],[1,1,0],[0,0.25,0],[0,0.5,0],[0,0.75,0],[1,0.25,0],[1,0.5,0],[1,0.75,0]];outlineConnect=0;fontColor=#232F3E;gradientColor=#F78E04;gradientDirection=north;fillColor=#D05C17;strokeColor=#ffffff;dashed=0;verticalLabelPosition=bottom;verticalAlign=top;align=center;html=1;fontSize=12;fontStyle=0;aspect=fixed;shape=mxgraph.aws4.resourceIcon;resIcon=mxgraph.aws4.ecs;" parent="xeNt2EiYQWwQvFAwMQvV-12" vertex="1">
          <mxGeometry width="78" height="78" as="geometry" />
        </mxCell>
        <mxCell id="xeNt2EiYQWwQvFAwMQvV-14" value="" style="sketch=0;outlineConnect=0;fontColor=#232F3E;gradientColor=none;fillColor=#D45B07;strokeColor=none;dashed=0;verticalLabelPosition=bottom;verticalAlign=top;align=center;html=1;fontSize=12;fontStyle=0;aspect=fixed;pointerEvents=1;shape=mxgraph.aws4.ecs_service;" parent="xeNt2EiYQWwQvFAwMQvV-12" vertex="1">
          <mxGeometry x="88" y="15" width="39" height="48" as="geometry" />
        </mxCell>
        <mxCell id="xeNt2EiYQWwQvFAwMQvV-15" value="" style="sketch=0;outlineConnect=0;fontColor=#232F3E;gradientColor=none;fillColor=#D45B07;strokeColor=none;dashed=0;verticalLabelPosition=bottom;verticalAlign=top;align=center;html=1;fontSize=12;fontStyle=0;aspect=fixed;pointerEvents=1;shape=mxgraph.aws4.ecs_task;" parent="xeNt2EiYQWwQvFAwMQvV-12" vertex="1">
          <mxGeometry x="138" y="15" width="37" height="48" as="geometry" />
        </mxCell>
        <mxCell id="xeNt2EiYQWwQvFAwMQvV-16" value="" style="edgeStyle=orthogonalEdgeStyle;rounded=0;orthogonalLoop=1;jettySize=auto;html=1;" parent="xeNt2EiYQWwQvFAwMQvV-3" source="xeNt2EiYQWwQvFAwMQvV-7" target="xeNt2EiYQWwQvFAwMQvV-8" edge="1">
          <mxGeometry relative="1" as="geometry" />
        </mxCell>
        <mxCell id="xeNt2EiYQWwQvFAwMQvV-20" value="/*&lt;br&gt;TCP 80" style="edgeLabel;html=1;align=center;verticalAlign=middle;resizable=0;points=[];fontSize=14;" parent="xeNt2EiYQWwQvFAwMQvV-16" vertex="1" connectable="0">
          <mxGeometry x="-0.3333" y="-3" relative="1" as="geometry">
            <mxPoint x="13" y="-3" as="offset" />
          </mxGeometry>
        </mxCell>
        <mxCell id="xeNt2EiYQWwQvFAwMQvV-18" value="" style="edgeStyle=orthogonalEdgeStyle;rounded=0;orthogonalLoop=1;jettySize=auto;html=1;entryX=0;entryY=0.5;entryDx=0;entryDy=0;entryPerimeter=0;" parent="xeNt2EiYQWwQvFAwMQvV-3" source="xeNt2EiYQWwQvFAwMQvV-7" target="xeNt2EiYQWwQvFAwMQvV-13" edge="1">
          <mxGeometry relative="1" as="geometry">
            <mxPoint x="200" y="253" as="targetPoint" />
            <Array as="points">
              <mxPoint x="150" y="131" />
              <mxPoint x="150" y="259" />
            </Array>
          </mxGeometry>
        </mxCell>
        <mxCell id="xeNt2EiYQWwQvFAwMQvV-19" value="/backend&lt;br&gt;TCP 8080" style="edgeLabel;html=1;align=center;verticalAlign=middle;resizable=0;points=[];fontSize=14;" parent="xeNt2EiYQWwQvFAwMQvV-18" vertex="1" connectable="0">
          <mxGeometry x="0.5576" y="-1" relative="1" as="geometry">
            <mxPoint x="1" as="offset" />
          </mxGeometry>
        </mxCell>
        <mxCell id="xeNt2EiYQWwQvFAwMQvV-6" value="Frontend ECR" style="sketch=0;points=[[0,0,0],[0.25,0,0],[0.5,0,0],[0.75,0,0],[1,0,0],[0,1,0],[0.25,1,0],[0.5,1,0],[0.75,1,0],[1,1,0],[0,0.25,0],[0,0.5,0],[0,0.75,0],[1,0.25,0],[1,0.5,0],[1,0.75,0]];outlineConnect=0;fontColor=#232F3E;gradientColor=#F78E04;gradientDirection=north;fillColor=#D05C17;strokeColor=#ffffff;dashed=0;verticalLabelPosition=bottom;verticalAlign=top;align=center;html=1;fontSize=12;fontStyle=0;aspect=fixed;shape=mxgraph.aws4.resourceIcon;resIcon=mxgraph.aws4.ecr;" parent="xeNt2EiYQWwQvFAwMQvV-1" vertex="1">
          <mxGeometry x="40" y="320" width="78" height="78" as="geometry" />
        </mxCell>
        <mxCell id="xeNt2EiYQWwQvFAwMQvV-30" value="" style="edgeStyle=orthogonalEdgeStyle;rounded=0;orthogonalLoop=1;jettySize=auto;html=1;fontSize=14;entryX=0.5;entryY=0;entryDx=0;entryDy=0;entryPerimeter=0;" parent="xeNt2EiYQWwQvFAwMQvV-1" source="xeNt2EiYQWwQvFAwMQvV-21" target="xeNt2EiYQWwQvFAwMQvV-7" edge="1">
          <mxGeometry relative="1" as="geometry">
            <mxPoint x="177" y="119" as="targetPoint" />
            <Array as="points">
              <mxPoint x="480" y="119" />
              <mxPoint x="480" y="270" />
              <mxPoint x="440" y="270" />
            </Array>
          </mxGeometry>
        </mxCell>
        <mxCell id="xeNt2EiYQWwQvFAwMQvV-31" value="TCP: 443" style="edgeLabel;html=1;align=center;verticalAlign=middle;resizable=0;points=[];fontSize=14;" parent="xeNt2EiYQWwQvFAwMQvV-30" vertex="1" connectable="0">
          <mxGeometry x="-0.7855" y="1" relative="1" as="geometry">
            <mxPoint as="offset" />
          </mxGeometry>
        </mxCell>
        <mxCell id="xeNt2EiYQWwQvFAwMQvV-21" value="springting.marvelorange.co.uk" style="sketch=0;points=[[0,0,0],[0.25,0,0],[0.5,0,0],[0.75,0,0],[1,0,0],[0,1,0],[0.25,1,0],[0.5,1,0],[0.75,1,0],[1,1,0],[0,0.25,0],[0,0.5,0],[0,0.75,0],[1,0.25,0],[1,0.5,0],[1,0.75,0]];outlineConnect=0;fontColor=#232F3E;gradientColor=#945DF2;gradientDirection=north;fillColor=#5A30B5;strokeColor=#ffffff;dashed=0;verticalLabelPosition=bottom;verticalAlign=top;align=center;html=1;fontSize=12;fontStyle=0;aspect=fixed;shape=mxgraph.aws4.resourceIcon;resIcon=mxgraph.aws4.route_53;" parent="xeNt2EiYQWwQvFAwMQvV-1" vertex="1">
          <mxGeometry x="40" y="80" width="78" height="78" as="geometry" />
        </mxCell>
        <mxCell id="xeNt2EiYQWwQvFAwMQvV-26" value="Web Application Firewall" style="sketch=0;points=[[0,0,0],[0.25,0,0],[0.5,0,0],[0.75,0,0],[1,0,0],[0,1,0],[0.25,1,0],[0.5,1,0],[0.75,1,0],[1,1,0],[0,0.25,0],[0,0.5,0],[0,0.75,0],[1,0.25,0],[1,0.5,0],[1,0.75,0]];outlineConnect=0;fontColor=#232F3E;gradientColor=#F54749;gradientDirection=north;fillColor=#C7131F;strokeColor=#ffffff;dashed=0;verticalLabelPosition=bottom;verticalAlign=top;align=center;html=1;fontSize=12;fontStyle=0;aspect=fixed;shape=mxgraph.aws4.resourceIcon;resIcon=mxgraph.aws4.waf;" parent="xeNt2EiYQWwQvFAwMQvV-1" vertex="1">
          <mxGeometry x="240" y="80" width="78" height="78" as="geometry" />
        </mxCell>
        <mxCell id="xeNt2EiYQWwQvFAwMQvV-27" value="AWS Shield" style="sketch=0;points=[[0,0,0],[0.25,0,0],[0.5,0,0],[0.75,0,0],[1,0,0],[0,1,0],[0.25,1,0],[0.5,1,0],[0.75,1,0],[1,1,0],[0,0.25,0],[0,0.5,0],[0,0.75,0],[1,0.25,0],[1,0.5,0],[1,0.75,0]];outlineConnect=0;fontColor=#232F3E;gradientColor=#F54749;gradientDirection=north;fillColor=#C7131F;strokeColor=#ffffff;dashed=0;verticalLabelPosition=bottom;verticalAlign=top;align=center;html=1;fontSize=12;fontStyle=0;aspect=fixed;shape=mxgraph.aws4.resourceIcon;resIcon=mxgraph.aws4.shield;" parent="xeNt2EiYQWwQvFAwMQvV-1" vertex="1">
          <mxGeometry x="360" y="80" width="78" height="78" as="geometry" />
        </mxCell>
        <mxCell id="xeNt2EiYQWwQvFAwMQvV-35" value="Backend ECR" style="sketch=0;points=[[0,0,0],[0.25,0,0],[0.5,0,0],[0.75,0,0],[1,0,0],[0,1,0],[0.25,1,0],[0.5,1,0],[0.75,1,0],[1,1,0],[0,0.25,0],[0,0.5,0],[0,0.75,0],[1,0.25,0],[1,0.5,0],[1,0.75,0]];outlineConnect=0;fontColor=#232F3E;gradientColor=#F78E04;gradientDirection=north;fillColor=#D05C17;strokeColor=#ffffff;dashed=0;verticalLabelPosition=bottom;verticalAlign=top;align=center;html=1;fontSize=12;fontStyle=0;aspect=fixed;shape=mxgraph.aws4.resourceIcon;resIcon=mxgraph.aws4.ecr;" parent="xeNt2EiYQWwQvFAwMQvV-1" vertex="1">
          <mxGeometry x="40" y="450" width="78" height="78" as="geometry" />
        </mxCell>
        <mxCell id="xeNt2EiYQWwQvFAwMQvV-42" value="" style="edgeStyle=orthogonalEdgeStyle;rounded=0;orthogonalLoop=1;jettySize=auto;html=1;fontSize=14;startArrow=classic;startFill=1;dashed=1;" parent="xeNt2EiYQWwQvFAwMQvV-1" source="xeNt2EiYQWwQvFAwMQvV-13" target="xeNt2EiYQWwQvFAwMQvV-35" edge="1">
          <mxGeometry relative="1" as="geometry">
            <mxPoint x="611" y="578" as="targetPoint" />
            <Array as="points">
              <mxPoint x="611" y="550" />
              <mxPoint x="345" y="550" />
              <mxPoint x="345" y="489" />
            </Array>
          </mxGeometry>
        </mxCell>
        <mxCell id="xeNt2EiYQWwQvFAwMQvV-43" value="" style="edgeStyle=orthogonalEdgeStyle;rounded=0;orthogonalLoop=1;jettySize=auto;html=1;fontSize=14;startArrow=classic;startFill=1;dashed=1;" parent="xeNt2EiYQWwQvFAwMQvV-1" source="xeNt2EiYQWwQvFAwMQvV-8" target="xeNt2EiYQWwQvFAwMQvV-6" edge="1">
          <mxGeometry relative="1" as="geometry">
            <Array as="points">
              <mxPoint x="611" y="410" />
              <mxPoint x="780" y="410" />
              <mxPoint x="780" y="580" />
              <mxPoint x="190" y="580" />
              <mxPoint x="190" y="359" />
            </Array>
          </mxGeometry>
        </mxCell>
        <mxCell id="xeNt2EiYQWwQvFAwMQvV-48" value="" style="edgeStyle=orthogonalEdgeStyle;rounded=0;orthogonalLoop=1;jettySize=auto;html=1;dashed=1;fontSize=14;startArrow=classic;startFill=1;entryX=0.855;entryY=0.145;entryDx=0;entryDy=0;entryPerimeter=0;endArrow=none;endFill=0;" parent="xeNt2EiYQWwQvFAwMQvV-1" source="xeNt2EiYQWwQvFAwMQvV-45" target="xeNt2EiYQWwQvFAwMQvV-7" edge="1">
          <mxGeometry relative="1" as="geometry">
            <mxPoint x="762.5" y="119" as="targetPoint" />
            <Array as="points">
              <mxPoint x="668" y="210" />
              <mxPoint x="465" y="210" />
            </Array>
          </mxGeometry>
        </mxCell>
        <mxCell id="xeNt2EiYQWwQvFAwMQvV-45" value="ALB Access Logs" style="sketch=0;outlineConnect=0;fontColor=#232F3E;gradientColor=none;fillColor=#3F8624;strokeColor=none;dashed=0;verticalLabelPosition=bottom;verticalAlign=top;align=center;html=1;fontSize=12;fontStyle=0;aspect=fixed;pointerEvents=1;shape=mxgraph.aws4.bucket_with_objects;" parent="xeNt2EiYQWwQvFAwMQvV-1" vertex="1">
          <mxGeometry x="630" y="80" width="75" height="78" as="geometry" />
        </mxCell>
        <mxCell id="xeNt2EiYQWwQvFAwMQvV-2" value="Github" style="fillColor=#EFF0F3;strokeColor=none;dashed=0;verticalAlign=top;fontStyle=0;fontColor=#232F3D;" parent="1" vertex="1">
          <mxGeometry x="40" y="400" width="200" height="360" as="geometry" />
        </mxCell>
        <mxCell id="xeNt2EiYQWwQvFAwMQvV-22" value="User Network" style="fillColor=#EFF0F3;strokeColor=none;dashed=0;verticalAlign=top;fontStyle=0;fontColor=#232F3D;" parent="1" vertex="1">
          <mxGeometry x="40" y="80" width="200" height="280" as="geometry" />
        </mxCell>
        <mxCell id="xeNt2EiYQWwQvFAwMQvV-25" value="" style="edgeStyle=orthogonalEdgeStyle;rounded=0;orthogonalLoop=1;jettySize=auto;html=1;fontSize=14;" parent="1" source="xeNt2EiYQWwQvFAwMQvV-23" target="xeNt2EiYQWwQvFAwMQvV-21" edge="1">
          <mxGeometry relative="1" as="geometry">
            <mxPoint x="235" y="180" as="targetPoint" />
          </mxGeometry>
        </mxCell>
        <mxCell id="xeNt2EiYQWwQvFAwMQvV-23" value="User" style="shape=umlActor;verticalLabelPosition=bottom;verticalAlign=top;html=1;outlineConnect=0;fontSize=14;" parent="1" vertex="1">
          <mxGeometry x="125" y="150" width="30" height="60" as="geometry" />
        </mxCell>
        <mxCell id="xeNt2EiYQWwQvFAwMQvV-37" value="" style="edgeStyle=orthogonalEdgeStyle;rounded=0;orthogonalLoop=1;jettySize=auto;html=1;fontSize=14;entryX=0;entryY=0.5;entryDx=0;entryDy=0;entryPerimeter=0;" parent="1" source="xeNt2EiYQWwQvFAwMQvV-33" target="xeNt2EiYQWwQvFAwMQvV-6" edge="1">
          <mxGeometry relative="1" as="geometry">
            <mxPoint x="210" y="465" as="targetPoint" />
          </mxGeometry>
        </mxCell>
        <mxCell id="xeNt2EiYQWwQvFAwMQvV-33" value="dotnet-publish workflow" style="verticalLabelPosition=bottom;html=1;verticalAlign=top;align=center;strokeColor=none;fillColor=#00BEF2;shape=mxgraph.azure.github_code;pointerEvents=1;fontSize=14;" parent="1" vertex="1">
          <mxGeometry x="115" y="440" width="50" height="50" as="geometry" />
        </mxCell>
        <mxCell id="xeNt2EiYQWwQvFAwMQvV-39" value="" style="edgeStyle=orthogonalEdgeStyle;rounded=0;orthogonalLoop=1;jettySize=auto;html=1;fontSize=14;" parent="1" source="xeNt2EiYQWwQvFAwMQvV-34" target="xeNt2EiYQWwQvFAwMQvV-35" edge="1">
          <mxGeometry relative="1" as="geometry">
            <mxPoint x="210" y="565" as="targetPoint" />
          </mxGeometry>
        </mxCell>
        <mxCell id="xeNt2EiYQWwQvFAwMQvV-34" value="maven-publish workflow" style="verticalLabelPosition=bottom;html=1;verticalAlign=top;align=center;strokeColor=none;fillColor=#00BEF2;shape=mxgraph.azure.github_code;pointerEvents=1;fontSize=14;" parent="1" vertex="1">
          <mxGeometry x="115" y="540" width="50" height="50" as="geometry" />
        </mxCell>
        <mxCell id="9iPToW0YOzSCxG8Srozf-1" value="Blue Harvest - Marvel Orange" style="text;html=1;align=center;verticalAlign=middle;resizable=0;points=[];autosize=1;strokeColor=none;fillColor=none;fontSize=20;" vertex="1" parent="1">
          <mxGeometry x="440" y="10" width="290" height="40" as="geometry" />
        </mxCell>
      </root>
    </mxGraphModel>
  </diagram>
</mxfile>
